# xmcd
# 
# Track frame offsets:
#     150
#     22052
#     39490
#     62297
#     86220
#     106872
#     131397
#     151937
#     166045
#     195760
#     220022
#     235090
#     290335
#     311172
# 
# Disc length: 4256
# 
# Revision: 4
# Processed by: cddbd v1.5.2PL0 Copyright (c) Steve Scherf et al.
# Submitted via: fre:ac v1.0.31
# 
DISCID=ab109e0e
DTITLE=Jazziz - Jazziz January 2003 Looking For Love: Jazziz 20th Anniversary
DYEAR=2002
DGENRE=Jazz
TTITLE0=American Dreams (from American Dreams)
TTITLE1=I Told You So (from Ask A Woman Who Knows)
TTITLE2=One 4 J (from One 4 J)
TTITLE3=Capetown Love (from Original Cinema)
TTITLE4=Crazy Games (from The Infinite)
TTITLE5=Justice (from Belly Of The Sun)
TTITLE6=Brighter Day (from Drive)
TTITLE7=Bird of Paradise (from Timeless Miles Davis)
TTITLE8=When It Rains (from Largo)
TTITLE9=Kickin' It Hard (from Night Grooves)
TTITLE10=What A Wonderful World (from A Wonderful World)
TTITLE11=Quasi An Arabesque (from The Commission Project)
TTITLE12=Feeling It (from New Found Freedom)
TTITLE13=Fingers (from Time Again)
EXTD=YEAR: 2003
EXTT0=
EXTT1=
EXTT2=
EXTT3=
EXTT4=
EXTT5=
EXTT6=
EXTT7=
EXTT8=
EXTT9=
EXTT10=
EXTT11=
EXTT12=
EXTT13=
PLAYORDER=
